<?xml version="1.0" encoding="utf-8"?><svg version="1.1" id="Layer_1" xmlns="http://www.w3.org/2000/svg" xmlns:xlink="http://www.w3.org/1999/xlink" x="0px" y="0px" viewBox="0 0 118.77 122.88" style="enable-background:new 0 0 118.77 122.88" xml:space="preserve"><style type="text/css">.st0{fill:#393939;} .st1{fill:#D8453E;}</style><g><path class="st0" d="M70.85,7.72H29.01c-2.73,0-5.25,0.47-7.51,1.42c-1.41,0.59-2.77,1.37-4.04,2.33 c-0.34-0.01-0.68-0.02-1.02-0.02c-2.13,0-4.22,0.23-6.28,0.68c-1.76,0.39-3.39,0.95-4.89,1.67c1.2-2.1,2.71-4.06,4.52-5.88 c2.62-2.62,5.56-4.62,8.77-5.93C21.77,0.68,25.23,0,28.96,0h18.95l0.05,0.05l0,0h41.84c3.67,0,7.14,0.68,10.4,1.99 c3.2,1.31,6.14,3.31,8.77,5.93c2.63,2.62,4.62,5.56,5.93,8.77c0.6,1.46,1.07,2.98,1.4,4.55h-4.3v0.04c-1.18,0-2.35,0.22-3.43,0.64 c-0.21-0.77-0.46-1.52-0.76-2.24c-0.94-2.26-2.36-4.36-4.25-6.25c-1.89-1.89-3.99-3.31-6.25-4.25c-2.26-0.94-4.78-1.42-7.51-1.42 H70.85V7.72L70.85,7.72L70.85,7.72z M9.79,71.03c0.22,1.58,0.63,3.08,1.21,4.47c0.94,2.26,2.36,4.36,4.25,6.25 c1.94,1.89,4.04,3.36,6.3,4.25c2.26,0.94,4.73,1.42,7.46,1.42h17.96c2.1,0,3.83,1.73,3.83,3.83c0,0.47-0.11,0.89-0.21,1.31 c-0.68,2.52-1.42,5.04-2.26,7.46c-0.89,2.57-1.84,4.99-2.89,7.35c-0.52,1.21-1.16,2.36-1.84,3.57c3.67-1.63,7.14-3.52,10.34-5.62 c3.36-2.21,6.51-4.67,9.4-7.35c2.94-2.73,5.56-5.72,7.98-8.93c0.74-1,1.89-1.52,3.04-1.52h15.44c2.73,0,5.2-0.47,7.46-1.42 c2.26-0.95,4.36-2.36,6.3-4.25c1.89-1.89,3.31-3.99,4.25-6.25c0.08-0.2,0.16-0.4,0.24-0.6l0.36-0.39c1.33-1.46,2.65-3.24,3.93-5.35 c1.12-1.85,2.17-3.89,3.12-6.14l1.45-3.43v8.28c0,3.73-0.68,7.19-1.99,10.4c-1.31,3.2-3.31,6.14-5.93,8.77 c-2.62,2.62-5.56,4.57-8.77,5.93c-3.2,1.31-6.67,2-10.4,2H76.26c-2.36,2.99-4.94,5.83-7.67,8.4c-3.25,3.05-6.72,5.77-10.45,8.19 c-3.73,2.47-7.72,4.62-11.97,6.46c-4.2,1.84-8.71,3.36-13.44,4.62c-1.37,0.37-2.83-0.05-3.83-1.16c-1.42-1.57-1.26-3.99,0.31-5.41 c2.21-1.94,4.1-3.94,5.62-5.93c1.47-1.94,2.68-3.94,3.57-5.98v-0.05c1-2.21,1.89-4.46,2.68-6.72c0.26-0.79,0.52-1.63,0.79-2.47 H28.96c-3.67,0-7.14-0.68-10.4-2c-3.2-1.31-6.14-3.31-8.77-5.93c-2.63-2.62-4.62-5.57-5.93-8.77c-1.21-3-1.88-6.17-1.98-9.53 c0.58,0.27,1.17,0.52,1.78,0.74c1.59,0.58,3.14,1,4.65,1.26C8.8,70.89,9.3,70.97,9.79,71.03L9.79,71.03z"/><path class="st1" d="M13.06,61.67c-2.1,0-4.15-0.36-6.16-1.09c-2-0.73-3.66-1.88-4.95-3.47C0.65,55.53,0,53.54,0,51.13 c0-1.37,0.1-2.54,0.29-3.49h7.56c-0.19,0.76-0.29,1.68-0.29,2.75c0,1.34,0.43,2.5,1.29,3.49c0.86,0.99,2.42,1.49,4.67,1.49 c1.95,0,3.47-0.5,4.58-1.49c1.11-0.99,1.66-2.19,1.66-3.61c0-1.15-0.32-2.13-0.94-2.95c-0.63-0.82-1.41-1.5-2.35-2.03 c-0.94-0.53-2.24-1.18-3.92-1.95c-2.02-0.92-3.66-1.76-4.9-2.52c-1.24-0.76-2.3-1.79-3.18-3.09c-0.88-1.3-1.32-2.92-1.32-4.87 c0-2.06,0.45-3.99,1.35-5.78c0.9-1.79,2.34-3.26,4.32-4.38c1.99-1.13,4.53-1.69,7.62-1.69c4.58,0,7.77,1.11,9.56,3.32 c1.79,2.21,2.69,5.19,2.69,8.93h-7.39c0-1.76-0.44-3.18-1.32-4.27c-0.88-1.09-2.2-1.63-3.95-1.63c-1.18,0-2.35,0.28-3.49,0.83 c-1.15,0.55-1.72,1.63-1.72,3.24c0,1.37,0.52,2.45,1.57,3.24c1.05,0.78,2.68,1.63,4.9,2.55c2.14,0.92,3.88,1.78,5.21,2.58 c1.34,0.8,2.48,1.94,3.44,3.41c0.95,1.47,1.43,3.33,1.43,5.58c0,2.67-0.62,4.98-1.86,6.93c-1.24,1.95-2.95,3.43-5.13,4.44 C18.21,61.17,15.77,61.67,13.06,61.67L13.06,61.67z M41.09,61.67c-7.1,0-10.65-3.66-10.65-11c0-5.54,1.04-10.34,3.12-14.41 c2.08-4.07,5.68-6.1,10.8-6.1c7.1,0,10.65,3.72,10.65,11.17c0,5.54-1.04,10.31-3.12,14.32C49.8,59.67,46.2,61.67,41.09,61.67 L41.09,61.67z M41.32,55.89c2.67,0,4.45-1.69,5.33-5.07c0.88-3.38,1.32-6.54,1.32-9.48c0-3.59-1.28-5.38-3.84-5.38 c-2.67,0-4.45,1.69-5.33,5.07c-0.88,3.38-1.32,6.54-1.32,9.48c0,1.79,0.31,3.14,0.92,4.04C39.01,55.44,39.98,55.89,41.32,55.89 L41.32,55.89z M60.85,30.86h5.56v4.58c0.76-1.57,1.63-2.83,2.61-3.81c0.97-0.97,2.17-1.46,3.58-1.46c0.73,0,1.34,0.07,1.83,0.2 c0.49,0.13,0.8,0.22,0.92,0.26l-0.86,6.64H72.3c-1.68,0-3.1,0.53-4.27,1.6s-1.92,2.85-2.26,5.33l-2.35,16.78h-6.76L60.85,30.86 L60.85,30.86z M78.47,30.86h5.56v4.58c0.76-1.57,1.63-2.83,2.61-3.81c0.97-0.97,2.17-1.46,3.58-1.46c0.73,0,1.34,0.07,1.83,0.2 c0.49,0.13,0.8,0.22,0.92,0.26l-0.86,6.64h-2.18c-1.68,0-3.1,0.53-4.27,1.6c-1.16,1.07-1.92,2.85-2.26,5.33l-2.35,16.78h-6.76 L78.47,30.86L78.47,30.86z M95.54,71.41c-1.18,0-2.2-0.07-3.04-0.2s-1.25-0.24-1.26-0.32l-0.43-5.27h3.09 c1.03,0,2.01-0.38,2.92-1.15c0.91-0.76,1.68-1.93,2.29-3.49l-5.73-30.13h6.87l2.52,14.15c0.17,0.95,0.31,2.35,0.49,4.18 s0.28,3.05,0.32,3.66h0.23c0.15-0.57,0.51-1.75,1.06-3.52c0.55-1.78,1.03-3.2,1.46-4.27l5.67-14.2h6.76l-12.09,28.58 c-1.57,3.71-3.38,6.62-5.33,8.76C99.41,70.34,98.18,71.41,95.54,71.41L95.54,71.41z"/></g></svg>